<mxfile host="app.diagrams.net" modified="2021-02-25T03:23:57.638Z" agent="5.0 (Macintosh; Intel Mac OS X 10_15_7) AppleWebKit/537.36 (KHTML, like Gecko) Chrome/88.0.4324.182 Safari/537.36" etag="FwTnXnpIlwdRvO9HWzbP" version="14.4.2" type="github">
  <diagram id="6a731a19-8d31-9384-78a2-239565b7b9f0" name="Page-1">
    <mxGraphModel dx="1253" dy="-73" grid="1" gridSize="10" guides="1" tooltips="1" connect="1" arrows="1" fold="1" page="1" pageScale="1" pageWidth="1169" pageHeight="827" background="#ffffff" math="0" shadow="0">
      <root>
        <mxCell id="0" />
        <mxCell id="1" parent="0" />
        <mxCell id="JWPWh-NqyevcAWw5SiPT-143" value="" style="group;fontSize=11;" vertex="1" connectable="0" parent="1">
          <mxGeometry x="20" y="840" width="1190" height="610" as="geometry" />
        </mxCell>
        <mxCell id="68" value="" style="fontSize=18;strokeWidth=1;fontFamily=Helvetica;html=1;opacity=60;fillColor=#BAC8D3;strokeColor=#FFFFFF;" parent="JWPWh-NqyevcAWw5SiPT-143" vertex="1">
          <mxGeometry x="99.44939716312058" y="88.72727272727273" width="151.91489361702133" height="521.2727272727274" as="geometry" />
        </mxCell>
        <mxCell id="A1_2ZJH7xsyHgvg7bX-s-143" value="" style="fontSize=18;strokeWidth=1;fontFamily=Helvetica;html=1;opacity=60;fillColor=#BAC8D3;strokeColor=#FFFFFF;" parent="JWPWh-NqyevcAWw5SiPT-143" vertex="1">
          <mxGeometry x="251.36429078014189" y="88.72172727272728" width="177.2340425531915" height="521.2727272727274" as="geometry" />
        </mxCell>
        <mxCell id="A1_2ZJH7xsyHgvg7bX-s-145" value="" style="fontSize=18;strokeWidth=1;fontFamily=Helvetica;html=1;opacity=60;fillColor=#BAC8D3;strokeColor=#FFFFFF;" parent="JWPWh-NqyevcAWw5SiPT-143" vertex="1">
          <mxGeometry x="428.59833333333347" y="88.72172727272728" width="153.74209219858162" height="521.2727272727274" as="geometry" />
        </mxCell>
        <mxCell id="A1_2ZJH7xsyHgvg7bX-s-147" value="" style="fontSize=18;strokeWidth=1;fontFamily=Helvetica;html=1;opacity=60;fillColor=#BAC8D3;strokeColor=#FFFFFF;" parent="JWPWh-NqyevcAWw5SiPT-143" vertex="1">
          <mxGeometry x="582.5176595744681" y="88.72172727272728" width="151.91489361702133" height="521.2727272727274" as="geometry" />
        </mxCell>
        <mxCell id="A1_2ZJH7xsyHgvg7bX-s-149" value="" style="fontSize=18;strokeWidth=1;fontFamily=Helvetica;html=1;opacity=60;fillColor=#BAC8D3;strokeColor=#FFFFFF;" parent="JWPWh-NqyevcAWw5SiPT-143" vertex="1">
          <mxGeometry x="734.2553191489363" y="88.72172727272728" width="151.91489361702133" height="521.2727272727274" as="geometry" />
        </mxCell>
        <mxCell id="A1_2ZJH7xsyHgvg7bX-s-150" value="" style="fontSize=18;strokeWidth=1;fontFamily=Helvetica;html=1;opacity=60;fillColor=#BAC8D3;strokeColor=#FFFFFF;" parent="JWPWh-NqyevcAWw5SiPT-143" vertex="1">
          <mxGeometry x="886.1702127659578" y="88.72172727272728" width="151.91489361702133" height="521.2727272727274" as="geometry" />
        </mxCell>
        <mxCell id="A1_2ZJH7xsyHgvg7bX-s-151" value="" style="fontSize=18;strokeWidth=1;fontFamily=Helvetica;html=1;opacity=60;fillColor=#BAC8D3;strokeColor=#FFFFFF;" parent="JWPWh-NqyevcAWw5SiPT-143" vertex="1">
          <mxGeometry x="1038.0851063829791" y="88.72172727272728" width="151.91489361702133" height="521.2727272727274" as="geometry" />
        </mxCell>
        <mxCell id="56" value="运送前" style="strokeColor=#BAC8D3;fillColor=#23445D;fontSize=24;strokeWidth=2;fontFamily=Helvetica;html=1;fontColor=#FFFFFF;fontStyle=0;spacingBottom=0;spacingRight=0;spacingLeft=0;align=center;" parent="JWPWh-NqyevcAWw5SiPT-143" vertex="1">
          <mxGeometry x="95.62198581560287" width="486.7184397163122" height="53.07000000000001" as="geometry" />
        </mxCell>
        <mxCell id="59" value="v 1.0" style="strokeColor=#BAC8D3;fillColor=#5d7f99;fontSize=19;strokeWidth=2;fontFamily=Helvetica;html=1;labelBackgroundColor=none;fontColor=#FFFFFF;" parent="JWPWh-NqyevcAWw5SiPT-143" vertex="1">
          <mxGeometry width="99.44891899227292" height="89.19496166484122" as="geometry" />
        </mxCell>
        <mxCell id="142" value="发货准备" style="strokeColor=#BAC8D3;fillColor=#5d7f99;fontSize=19;strokeWidth=2;fontFamily=Helvetica;html=1;labelBackgroundColor=none;fontColor=#FFFFFF;" parent="JWPWh-NqyevcAWw5SiPT-143" vertex="1">
          <mxGeometry x="251.36429078014189" y="53.51363636363639" width="177.2340425531915" height="35.679454545454554" as="geometry" />
        </mxCell>
        <mxCell id="8gJjFFY2pVBGSUi6WzXW-167" value="&lt;font color=&quot;#ffffff&quot; style=&quot;font-size: 10px;&quot;&gt;&lt;span style=&quot;font-size: 10px;&quot;&gt;发布货运信息&lt;br style=&quot;font-size: 10px;&quot;&gt;招募承运方&lt;br style=&quot;font-size: 10px;&quot;&gt;&lt;/span&gt;&lt;/font&gt;" style="rounded=1;fillColor=#23445D;strokeColor=none;strokeWidth=2;fontFamily=Helvetica;html=1;gradientColor=none;fontSize=10;" parent="JWPWh-NqyevcAWw5SiPT-143" vertex="1">
          <mxGeometry x="282.79" y="310.54" width="107.21" height="44.6" as="geometry" />
        </mxCell>
        <mxCell id="8gJjFFY2pVBGSUi6WzXW-163" value="发货方" style="strokeColor=#BAC8D3;fillColor=#23445D;fontSize=24;strokeWidth=2;horizontal=1;fontFamily=Helvetica;html=1;fontColor=#FFFFFF;fontStyle=0" parent="JWPWh-NqyevcAWw5SiPT-143" vertex="1">
          <mxGeometry y="89.19309090909096" width="99.44939716312058" height="138.17054545454545" as="geometry" />
        </mxCell>
        <mxCell id="57" value="业务经理" style="strokeColor=#BAC8D3;fillColor=#23445D;fontSize=24;strokeWidth=2;horizontal=1;fontFamily=Helvetica;html=1;fontColor=#FFFFFF;fontStyle=0" parent="JWPWh-NqyevcAWw5SiPT-143" vertex="1">
          <mxGeometry y="227.3636363636364" width="99.44939716312058" height="149.72727272727272" as="geometry" />
        </mxCell>
        <mxCell id="8gJjFFY2pVBGSUi6WzXW-145" value="收货方" style="strokeColor=#BAC8D3;fillColor=#23445D;fontSize=24;strokeWidth=2;horizontal=1;fontFamily=Helvetica;html=1;fontColor=#FFFFFF;fontStyle=0" parent="JWPWh-NqyevcAWw5SiPT-143" vertex="1">
          <mxGeometry y="487.99999999999994" width="99.44939716312058" height="121.44545454545458" as="geometry" />
        </mxCell>
        <mxCell id="143" value="合同及费用" style="strokeColor=#BAC8D3;fillColor=#5d7f99;fontSize=19;strokeWidth=2;fontFamily=Helvetica;html=1;labelBackgroundColor=none;fontColor=#FFFFFF;" parent="JWPWh-NqyevcAWw5SiPT-143" vertex="1">
          <mxGeometry x="428.59833333333347" y="53.51363636363639" width="153.74209219858162" height="35.679454545454554" as="geometry" />
        </mxCell>
        <mxCell id="8gJjFFY2pVBGSUi6WzXW-203" value="&lt;font color=&quot;#ffffff&quot; style=&quot;font-size: 10px&quot;&gt;&lt;span style=&quot;font-size: 10px&quot;&gt;确认运输方案、&lt;br&gt;应急预案&lt;br style=&quot;font-size: 10px&quot;&gt;&lt;/span&gt;&lt;/font&gt;" style="rounded=1;fillColor=#23445D;strokeColor=none;strokeWidth=2;fontFamily=Helvetica;html=1;gradientColor=none;fontSize=10;" parent="JWPWh-NqyevcAWw5SiPT-143" vertex="1">
          <mxGeometry x="285.74" y="127.54" width="104.26" height="44.6" as="geometry" />
        </mxCell>
        <mxCell id="O1fz6AgV2XTZRpMDdjqL-147" style="edgeStyle=orthogonalEdgeStyle;rounded=0;orthogonalLoop=1;jettySize=auto;html=1;entryX=0.5;entryY=0;entryDx=0;entryDy=0;exitX=1;exitY=0.5;exitDx=0;exitDy=0;" parent="JWPWh-NqyevcAWw5SiPT-143" source="8gJjFFY2pVBGSUi6WzXW-203" target="8gJjFFY2pVBGSUi6WzXW-167" edge="1">
          <mxGeometry relative="1" as="geometry">
            <Array as="points">
              <mxPoint x="410" y="150" />
              <mxPoint x="410" y="294" />
              <mxPoint x="336" y="294" />
            </Array>
            <mxPoint x="377.960035460993" y="149.72172727272732" as="sourcePoint" />
          </mxGeometry>
        </mxCell>
        <mxCell id="O1fz6AgV2XTZRpMDdjqL-149" style="edgeStyle=orthogonalEdgeStyle;rounded=0;orthogonalLoop=1;jettySize=auto;html=1;exitX=0.5;exitY=0;exitDx=0;exitDy=0;entryX=0.5;entryY=1;entryDx=0;entryDy=0;" parent="JWPWh-NqyevcAWw5SiPT-143" source="8gJjFFY2pVBGSUi6WzXW-204" target="8gJjFFY2pVBGSUi6WzXW-203" edge="1">
          <mxGeometry relative="1" as="geometry" />
        </mxCell>
        <mxCell id="8gJjFFY2pVBGSUi6WzXW-204" value="&lt;font style=&quot;font-size: 8px&quot;&gt;&lt;font color=&quot;#ffffff&quot; style=&quot;font-size: 8px&quot;&gt;制定运输方案、&lt;br&gt;&lt;/font&gt;&lt;span style=&quot;color: rgb(255 , 255 , 255) ; font-size: 8px&quot;&gt;应急预案&lt;/span&gt;&lt;/font&gt;&lt;font color=&quot;#ffffff&quot; style=&quot;font-size: 8px&quot;&gt;&lt;span style=&quot;font-size: 8px&quot;&gt;&lt;br style=&quot;font-size: 8px&quot;&gt;&lt;/span&gt;&lt;/font&gt;" style="rounded=1;fillColor=#23445D;strokeColor=none;strokeWidth=2;fontFamily=Helvetica;html=1;gradientColor=none;fontSize=8;" parent="JWPWh-NqyevcAWw5SiPT-143" vertex="1">
          <mxGeometry x="285.74" y="222.37" width="104.26" height="50.29" as="geometry" />
        </mxCell>
        <mxCell id="8gJjFFY2pVBGSUi6WzXW-172" value="发货" style="strokeColor=#BAC8D3;fillColor=#5d7f99;fontSize=19;strokeWidth=2;fontFamily=Helvetica;html=1;labelBackgroundColor=none;fontColor=#FFFFFF;" parent="JWPWh-NqyevcAWw5SiPT-143" vertex="1">
          <mxGeometry x="582.3404255319151" y="53.51363636363639" width="152.0921276595745" height="35.679454545454554" as="geometry" />
        </mxCell>
        <mxCell id="8gJjFFY2pVBGSUi6WzXW-188" value="&lt;font color=&quot;#ffffff&quot; style=&quot;font-size: 10px;&quot;&gt;&lt;span style=&quot;font-size: 10px;&quot;&gt;提货&lt;br style=&quot;font-size: 10px;&quot;&gt;&lt;/span&gt;&lt;/font&gt;" style="rounded=1;fillColor=#23445D;strokeColor=none;strokeWidth=2;fontFamily=Helvetica;html=1;gradientColor=none;fontSize=10;" parent="JWPWh-NqyevcAWw5SiPT-143" vertex="1">
          <mxGeometry x="616.107730496454" y="407.03081818181823" width="84.23258865248229" height="44.59654545454546" as="geometry" />
        </mxCell>
        <mxCell id="8gJjFFY2pVBGSUi6WzXW-215" value="&lt;span style=&quot;color: rgb(255, 255, 255); font-size: 10px;&quot;&gt;发货确认&lt;/span&gt;&lt;font color=&quot;#ffffff&quot; style=&quot;font-size: 10px;&quot;&gt;&lt;span style=&quot;font-size: 10px;&quot;&gt;&lt;br style=&quot;font-size: 10px;&quot;&gt;&lt;/span&gt;&lt;/font&gt;" style="rounded=1;fillColor=#23445D;strokeColor=none;strokeWidth=2;fontFamily=Helvetica;html=1;gradientColor=none;fontSize=10;" parent="JWPWh-NqyevcAWw5SiPT-143" vertex="1">
          <mxGeometry x="616.0974784044039" y="127.65773766280793" width="84.2415150000698" height="44.36363636363637" as="geometry" />
        </mxCell>
        <mxCell id="O1fz6AgV2XTZRpMDdjqL-155" style="edgeStyle=orthogonalEdgeStyle;rounded=0;orthogonalLoop=1;jettySize=auto;html=1;exitX=0.5;exitY=0;exitDx=0;exitDy=0;entryX=0.5;entryY=1;entryDx=0;entryDy=0;" parent="JWPWh-NqyevcAWw5SiPT-143" source="8gJjFFY2pVBGSUi6WzXW-188" target="8gJjFFY2pVBGSUi6WzXW-215" edge="1">
          <mxGeometry relative="1" as="geometry" />
        </mxCell>
        <mxCell id="8gJjFFY2pVBGSUi6WzXW-175" value="在途" style="strokeColor=#BAC8D3;fillColor=#5d7f99;fontSize=19;strokeWidth=2;fontFamily=Helvetica;html=1;labelBackgroundColor=none;fontColor=#FFFFFF;" parent="JWPWh-NqyevcAWw5SiPT-143" vertex="1">
          <mxGeometry x="734.2553191489363" y="53.51363636363639" width="151.91489361702133" height="35.679454545454554" as="geometry" />
        </mxCell>
        <mxCell id="8gJjFFY2pVBGSUi6WzXW-178" value="送达/签收" style="strokeColor=#BAC8D3;fillColor=#5d7f99;fontSize=19;strokeWidth=2;fontFamily=Helvetica;html=1;labelBackgroundColor=none;fontColor=#FFFFFF;" parent="JWPWh-NqyevcAWw5SiPT-143" vertex="1">
          <mxGeometry x="886.1702127659578" y="53.51363636363639" width="151.91489361702133" height="35.679454545454554" as="geometry" />
        </mxCell>
        <mxCell id="8gJjFFY2pVBGSUi6WzXW-200" value="&lt;font color=&quot;#ffffff&quot; style=&quot;font-size: 10px;&quot;&gt;&lt;span style=&quot;font-size: 10px;&quot;&gt;检查验收、回单&lt;br style=&quot;font-size: 10px;&quot;&gt;&lt;/span&gt;&lt;/font&gt;" style="rounded=1;fillColor=#23445D;strokeColor=none;strokeWidth=2;fontFamily=Helvetica;html=1;gradientColor=none;fontSize=10;" parent="JWPWh-NqyevcAWw5SiPT-143" vertex="1">
          <mxGeometry x="914.14" y="526.81" width="105.86" height="44.6" as="geometry" />
        </mxCell>
        <mxCell id="8gJjFFY2pVBGSUi6WzXW-221" value="运送中" style="strokeColor=#BAC8D3;fillColor=#23445D;fontSize=24;strokeWidth=2;fontFamily=Helvetica;html=1;fontColor=#FFFFFF;fontStyle=0;spacingBottom=0;spacingRight=0;spacingLeft=0;align=center;" parent="JWPWh-NqyevcAWw5SiPT-143" vertex="1">
          <mxGeometry x="582.3404255319151" width="303.82978723404267" height="53.07000000000001" as="geometry" />
        </mxCell>
        <mxCell id="8gJjFFY2pVBGSUi6WzXW-222" value="送达" style="strokeColor=#BAC8D3;fillColor=#23445D;fontSize=24;strokeWidth=2;fontFamily=Helvetica;html=1;fontColor=#FFFFFF;fontStyle=0;spacingBottom=0;spacingRight=0;spacingLeft=0;align=center;" parent="JWPWh-NqyevcAWw5SiPT-143" vertex="1">
          <mxGeometry x="886.1702127659578" width="303.82978723404267" height="53.07000000000001" as="geometry" />
        </mxCell>
        <mxCell id="8gJjFFY2pVBGSUi6WzXW-226" value="结算/评价" style="strokeColor=#BAC8D3;fillColor=#5d7f99;fontSize=19;strokeWidth=2;fontFamily=Helvetica;html=1;labelBackgroundColor=none;fontColor=#FFFFFF;" parent="JWPWh-NqyevcAWw5SiPT-143" vertex="1">
          <mxGeometry x="1038.0851063829791" y="53.51363636363639" width="151.91489361702133" height="35.679454545454554" as="geometry" />
        </mxCell>
        <mxCell id="8gJjFFY2pVBGSUi6WzXW-231" style="edgeStyle=orthogonalEdgeStyle;rounded=0;orthogonalLoop=1;jettySize=auto;html=1;entryX=0;entryY=0.5;entryDx=0;entryDy=0;" parent="JWPWh-NqyevcAWw5SiPT-143" source="8gJjFFY2pVBGSUi6WzXW-200" target="8gJjFFY2pVBGSUi6WzXW-228" edge="1">
          <mxGeometry x="36.15152482269505" y="62.60818181818182" as="geometry">
            <Array as="points">
              <mxPoint x="1033.8652482269506" y="549" />
              <mxPoint x="1033.8652482269506" y="149.72727272727272" />
            </Array>
          </mxGeometry>
        </mxCell>
        <mxCell id="8gJjFFY2pVBGSUi6WzXW-228" value="&lt;font color=&quot;#ffffff&quot; style=&quot;font-size: 10px;&quot;&gt;&lt;span style=&quot;font-size: 10px;&quot;&gt;支付运费尾款&lt;br style=&quot;font-size: 10px;&quot;&gt;&lt;/span&gt;&lt;/font&gt;" style="rounded=1;strokeColor=none;strokeWidth=2;fontFamily=Helvetica;html=1;gradientColor=none;fillColor=#999900;fontSize=10;" parent="JWPWh-NqyevcAWw5SiPT-143" vertex="1">
          <mxGeometry x="1071.8423859908814" y="127.42497765738652" width="84.2415150000698" height="44.59748083242062" as="geometry" />
        </mxCell>
        <mxCell id="8gJjFFY2pVBGSUi6WzXW-229" value="&lt;font color=&quot;#ffffff&quot; style=&quot;font-size: 10px;&quot;&gt;&lt;span style=&quot;font-size: 10px;&quot;&gt;支付承运费用&lt;br style=&quot;font-size: 10px;&quot;&gt;&lt;/span&gt;&lt;/font&gt;" style="rounded=1;strokeColor=none;strokeWidth=2;fontFamily=Helvetica;html=1;gradientColor=none;fillColor=#999900;fontSize=10;" parent="JWPWh-NqyevcAWw5SiPT-143" vertex="1">
          <mxGeometry x="1071.9816413100302" y="277.03298642920635" width="84.2415150000698" height="44.59748083242062" as="geometry" />
        </mxCell>
        <mxCell id="Wi2zk9jfveLAhUYoLnKh-143" style="edgeStyle=orthogonalEdgeStyle;rounded=0;orthogonalLoop=1;jettySize=auto;html=1;exitX=0.5;exitY=1;exitDx=0;exitDy=0;" parent="JWPWh-NqyevcAWw5SiPT-143" source="8gJjFFY2pVBGSUi6WzXW-228" target="8gJjFFY2pVBGSUi6WzXW-229" edge="1">
          <mxGeometry relative="1" as="geometry" />
        </mxCell>
        <mxCell id="8gJjFFY2pVBGSUi6WzXW-234" style="edgeStyle=orthogonalEdgeStyle;rounded=0;orthogonalLoop=1;jettySize=auto;html=1;exitX=0.5;exitY=1;exitDx=0;exitDy=0;entryX=0.5;entryY=0;entryDx=0;entryDy=0;" parent="JWPWh-NqyevcAWw5SiPT-143" source="8gJjFFY2pVBGSUi6WzXW-232" target="8gJjFFY2pVBGSUi6WzXW-200" edge="1">
          <mxGeometry x="36.15152482269505" y="62.60818181818182" as="geometry" />
        </mxCell>
        <mxCell id="8gJjFFY2pVBGSUi6WzXW-232" value="&lt;font color=&quot;#ffffff&quot; style=&quot;font-size: 10px;&quot;&gt;&lt;span style=&quot;font-size: 10px;&quot;&gt;送达&lt;/span&gt;&lt;/font&gt;&lt;font color=&quot;#ffffff&quot; style=&quot;font-size: 10px;&quot;&gt;&lt;span style=&quot;font-size: 10px;&quot;&gt;&lt;br style=&quot;font-size: 10px;&quot;&gt;&lt;/span&gt;&lt;/font&gt;" style="rounded=1;fillColor=#23445D;strokeColor=none;strokeWidth=2;fontFamily=Helvetica;html=1;gradientColor=none;fontSize=10;" parent="JWPWh-NqyevcAWw5SiPT-143" vertex="1">
          <mxGeometry x="914.14" y="404.82" width="105.86" height="44.6" as="geometry" />
        </mxCell>
        <mxCell id="8gJjFFY2pVBGSUi6WzXW-245" value="承运方" style="strokeColor=#BAC8D3;fillColor=#23445D;fontSize=24;strokeWidth=2;horizontal=1;fontFamily=Helvetica;html=1;fontColor=#FFFFFF;fontStyle=0" parent="JWPWh-NqyevcAWw5SiPT-143" vertex="1">
          <mxGeometry y="377.0909090909092" width="99.44939716312058" height="110.90909090909092" as="geometry" />
        </mxCell>
        <mxCell id="141" value="创建订单" style="strokeColor=#BAC8D3;fillColor=#5d7f99;fontSize=19;strokeWidth=2;fontFamily=Helvetica;html=1;labelBackgroundColor=none;fontColor=#FFFFFF;" parent="JWPWh-NqyevcAWw5SiPT-143" vertex="1">
          <mxGeometry x="99.44939716312058" y="53.51363636363639" width="151.91489361702133" height="35.679454545454554" as="geometry" />
        </mxCell>
        <mxCell id="8gJjFFY2pVBGSUi6WzXW-150" value="&lt;font color=&quot;#ffffff&quot; style=&quot;font-size: 10px;&quot;&gt;&lt;span style=&quot;font-size: 10px;&quot;&gt;提交运输请求&lt;/span&gt;&lt;/font&gt;" style="rounded=1;fillColor=#23445D;strokeColor=none;strokeWidth=2;fontFamily=Helvetica;html=1;gradientColor=none;fontSize=10;" parent="JWPWh-NqyevcAWw5SiPT-143" vertex="1">
          <mxGeometry x="129.05" y="127.55" width="90.95" height="44.6" as="geometry" />
        </mxCell>
        <mxCell id="R8xT18yA5sv1bF3o99iS-175" style="edgeStyle=orthogonalEdgeStyle;rounded=0;orthogonalLoop=1;jettySize=auto;html=1;" parent="JWPWh-NqyevcAWw5SiPT-143" source="R8xT18yA5sv1bF3o99iS-154" target="8gJjFFY2pVBGSUi6WzXW-188" edge="1">
          <mxGeometry x="36.15152482269505" y="62.60818181818182" as="geometry" />
        </mxCell>
        <mxCell id="8gJjFFY2pVBGSUi6WzXW-258" value="&lt;span style=&quot;font-size: 10px;&quot;&gt;&lt;font color=&quot;#ffffff&quot; style=&quot;font-size: 10px;&quot;&gt;签订发货合同&lt;/font&gt;&lt;br style=&quot;font-size: 10px;&quot;&gt;&lt;/span&gt;" style="rounded=1;fillColor=#23445D;strokeColor=none;strokeWidth=2;fontFamily=Helvetica;html=1;gradientColor=none;fontSize=10;" parent="JWPWh-NqyevcAWw5SiPT-143" vertex="1">
          <mxGeometry x="454.33" y="116.45" width="95.67" height="44.36" as="geometry" />
        </mxCell>
        <mxCell id="R8xT18yA5sv1bF3o99iS-154" value="&lt;span style=&quot;color: rgb(255, 255, 255); font-size: 10px;&quot;&gt;签订承运合同&lt;/span&gt;&lt;span style=&quot;font-size: 10px;&quot;&gt;&lt;br style=&quot;font-size: 10px;&quot;&gt;&lt;/span&gt;" style="rounded=1;fillColor=#23445D;strokeColor=none;strokeWidth=2;fontFamily=Helvetica;html=1;gradientColor=none;fontSize=10;" parent="JWPWh-NqyevcAWw5SiPT-143" vertex="1">
          <mxGeometry x="454.33" y="407.03" width="95.67" height="44.6" as="geometry" />
        </mxCell>
        <mxCell id="O1fz6AgV2XTZRpMDdjqL-145" style="edgeStyle=orthogonalEdgeStyle;rounded=0;orthogonalLoop=1;jettySize=auto;html=1;exitX=1;exitY=0.5;exitDx=0;exitDy=0;entryX=0;entryY=0.5;entryDx=0;entryDy=0;" parent="JWPWh-NqyevcAWw5SiPT-143" source="O1fz6AgV2XTZRpMDdjqL-143" target="8gJjFFY2pVBGSUi6WzXW-204" edge="1">
          <mxGeometry relative="1" as="geometry" />
        </mxCell>
        <mxCell id="O1fz6AgV2XTZRpMDdjqL-143" value="&lt;font color=&quot;#ffffff&quot; style=&quot;font-size: 10px;&quot;&gt;&lt;span style=&quot;font-size: 10px;&quot;&gt;发货请求审核&lt;br style=&quot;font-size: 10px;&quot;&gt;&lt;/span&gt;&lt;/font&gt;" style="rounded=1;fillColor=#23445D;strokeColor=none;strokeWidth=2;fontFamily=Helvetica;html=1;gradientColor=none;fontSize=10;" parent="JWPWh-NqyevcAWw5SiPT-143" vertex="1">
          <mxGeometry x="128.98" y="277.27" width="91.02" height="44.36" as="geometry" />
        </mxCell>
        <mxCell id="8gJjFFY2pVBGSUi6WzXW-250" style="edgeStyle=orthogonalEdgeStyle;rounded=0;orthogonalLoop=1;jettySize=auto;html=1;exitX=0.5;exitY=1;exitDx=0;exitDy=0;" parent="JWPWh-NqyevcAWw5SiPT-143" source="8gJjFFY2pVBGSUi6WzXW-150" target="O1fz6AgV2XTZRpMDdjqL-143" edge="1">
          <mxGeometry y="49.90909090909091" as="geometry">
            <mxPoint x="248.97163120567382" y="307.77272727272725" as="targetPoint" />
            <Array as="points" />
          </mxGeometry>
        </mxCell>
        <mxCell id="O1fz6AgV2XTZRpMDdjqL-151" style="edgeStyle=orthogonalEdgeStyle;rounded=0;orthogonalLoop=1;jettySize=auto;html=1;entryX=0;entryY=0.5;entryDx=0;entryDy=0;exitX=1;exitY=0.5;exitDx=0;exitDy=0;" parent="JWPWh-NqyevcAWw5SiPT-143" source="O1fz6AgV2XTZRpMDdjqL-146" target="8gJjFFY2pVBGSUi6WzXW-258" edge="1">
          <mxGeometry relative="1" as="geometry">
            <Array as="points">
              <mxPoint x="438.8652482269505" y="432.5454545454545" />
              <mxPoint x="438.8652482269505" y="138.63636363636363" />
            </Array>
          </mxGeometry>
        </mxCell>
        <mxCell id="O1fz6AgV2XTZRpMDdjqL-146" value="&lt;font color=&quot;#ffffff&quot; style=&quot;font-size: 10px;&quot;&gt;&lt;span style=&quot;font-size: 10px;&quot;&gt;应标&lt;br style=&quot;font-size: 10px;&quot;&gt;&lt;/span&gt;&lt;/font&gt;" style="rounded=1;fillColor=#23445D;strokeColor=none;strokeWidth=2;fontFamily=Helvetica;html=1;gradientColor=none;fontSize=10;" parent="JWPWh-NqyevcAWw5SiPT-143" vertex="1">
          <mxGeometry x="294.82882978723416" y="410.24163636363636" width="83.1312056737589" height="44.59654545454546" as="geometry" />
        </mxCell>
        <mxCell id="O1fz6AgV2XTZRpMDdjqL-150" style="edgeStyle=orthogonalEdgeStyle;rounded=0;orthogonalLoop=1;jettySize=auto;html=1;exitX=0.5;exitY=1;exitDx=0;exitDy=0;entryX=0.5;entryY=0;entryDx=0;entryDy=0;" parent="JWPWh-NqyevcAWw5SiPT-143" source="8gJjFFY2pVBGSUi6WzXW-167" target="O1fz6AgV2XTZRpMDdjqL-146" edge="1">
          <mxGeometry relative="1" as="geometry">
            <Array as="points">
              <mxPoint x="336.605425531915" y="407.03081818181823" />
            </Array>
          </mxGeometry>
        </mxCell>
        <mxCell id="O1fz6AgV2XTZRpMDdjqL-154" style="edgeStyle=orthogonalEdgeStyle;rounded=0;orthogonalLoop=1;jettySize=auto;html=1;exitX=0.5;exitY=1;exitDx=0;exitDy=0;entryX=0.5;entryY=0;entryDx=0;entryDy=0;" parent="JWPWh-NqyevcAWw5SiPT-143" source="O1fz6AgV2XTZRpMDdjqL-152" target="R8xT18yA5sv1bF3o99iS-154" edge="1">
          <mxGeometry relative="1" as="geometry" />
        </mxCell>
        <mxCell id="O1fz6AgV2XTZRpMDdjqL-152" value="&lt;span style=&quot;font-size: 10px;&quot;&gt;&lt;font color=&quot;#ffffff&quot; style=&quot;font-size: 10px;&quot;&gt;支付运费预付款&lt;/font&gt;&lt;br style=&quot;font-size: 10px;&quot;&gt;&lt;/span&gt;" style="rounded=1;fillColor=#999900;strokeColor=none;strokeWidth=2;fontFamily=Helvetica;html=1;gradientColor=none;fontSize=10;" parent="JWPWh-NqyevcAWw5SiPT-143" vertex="1">
          <mxGeometry x="454.33" y="172.14" width="95.67" height="44.36" as="geometry" />
        </mxCell>
        <mxCell id="O1fz6AgV2XTZRpMDdjqL-153" style="edgeStyle=orthogonalEdgeStyle;rounded=0;orthogonalLoop=1;jettySize=auto;html=1;exitX=0.5;exitY=1;exitDx=0;exitDy=0;entryX=0.5;entryY=0;entryDx=0;entryDy=0;" parent="JWPWh-NqyevcAWw5SiPT-143" source="8gJjFFY2pVBGSUi6WzXW-258" target="O1fz6AgV2XTZRpMDdjqL-152" edge="1">
          <mxGeometry relative="1" as="geometry" />
        </mxCell>
        <mxCell id="O1fz6AgV2XTZRpMDdjqL-157" value="&lt;span style=&quot;font-size: 10px&quot;&gt;查询物流状态&lt;br style=&quot;font-size: 10px&quot;&gt;&lt;/span&gt;" style="rounded=1;fillColor=none;strokeWidth=2;fontFamily=Helvetica;html=1;gradientColor=none;shadow=0;dashed=1;strokeColor=#23445D;fontSize=10;" parent="JWPWh-NqyevcAWw5SiPT-143" vertex="1">
          <mxGeometry x="768.0141843971633" y="127.77281818181825" width="84.3971631205674" height="44.36363636363637" as="geometry" />
        </mxCell>
        <mxCell id="O1fz6AgV2XTZRpMDdjqL-162" style="edgeStyle=orthogonalEdgeStyle;rounded=0;orthogonalLoop=1;jettySize=auto;html=1;entryX=0;entryY=0.5;entryDx=0;entryDy=0;exitX=1;exitY=0.5;exitDx=0;exitDy=0;" parent="JWPWh-NqyevcAWw5SiPT-143" source="8gJjFFY2pVBGSUi6WzXW-215" target="O1fz6AgV2XTZRpMDdjqL-157" edge="1">
          <mxGeometry relative="1" as="geometry">
            <Array as="points">
              <mxPoint x="766.186985815603" y="149.72172727272732" />
              <mxPoint x="766.186985815603" y="149.72172727272732" />
            </Array>
            <mxPoint x="740.44585106383" y="413.1308181818181" as="sourcePoint" />
          </mxGeometry>
        </mxCell>
        <mxCell id="O1fz6AgV2XTZRpMDdjqL-159" value="&lt;span style=&quot;font-size: 10px&quot;&gt;查询物流状态&lt;br style=&quot;font-size: 10px&quot;&gt;&lt;/span&gt;" style="rounded=1;fillColor=none;strokeWidth=2;fontFamily=Helvetica;html=1;gradientColor=none;shadow=0;dashed=1;strokeColor=#23445D;fontSize=10;" parent="JWPWh-NqyevcAWw5SiPT-143" vertex="1">
          <mxGeometry x="768.0141843971633" y="527.0455454545455" width="84.3971631205674" height="44.36363636363637" as="geometry" />
        </mxCell>
        <mxCell id="O1fz6AgV2XTZRpMDdjqL-160" value="&lt;span style=&quot;font-size: 10px&quot;&gt;查询物流状态&lt;br style=&quot;font-size: 10px&quot;&gt;&lt;/span&gt;" style="rounded=1;fillColor=none;strokeWidth=2;fontFamily=Helvetica;html=1;gradientColor=none;shadow=0;dashed=1;strokeColor=#23445D;fontSize=10;" parent="JWPWh-NqyevcAWw5SiPT-143" vertex="1">
          <mxGeometry x="768.0141843971633" y="277.3836363636364" width="84.3971631205674" height="44.36363636363637" as="geometry" />
        </mxCell>
        <mxCell id="O1fz6AgV2XTZRpMDdjqL-163" style="edgeStyle=orthogonalEdgeStyle;rounded=0;orthogonalLoop=1;jettySize=auto;html=1;exitX=0.5;exitY=1;exitDx=0;exitDy=0;entryX=0.5;entryY=0;entryDx=0;entryDy=0;" parent="JWPWh-NqyevcAWw5SiPT-143" source="O1fz6AgV2XTZRpMDdjqL-157" target="O1fz6AgV2XTZRpMDdjqL-160" edge="1">
          <mxGeometry relative="1" as="geometry" />
        </mxCell>
        <mxCell id="O1fz6AgV2XTZRpMDdjqL-166" style="edgeStyle=orthogonalEdgeStyle;rounded=0;orthogonalLoop=1;jettySize=auto;html=1;exitX=0.5;exitY=1;exitDx=0;exitDy=0;" parent="JWPWh-NqyevcAWw5SiPT-143" source="O1fz6AgV2XTZRpMDdjqL-161" target="O1fz6AgV2XTZRpMDdjqL-159" edge="1">
          <mxGeometry relative="1" as="geometry" />
        </mxCell>
        <mxCell id="rg-k3hPxQAlU4nn3tpo2-150" style="edgeStyle=orthogonalEdgeStyle;rounded=0;orthogonalLoop=1;jettySize=auto;html=1;entryX=0;entryY=0.5;entryDx=0;entryDy=0;" parent="JWPWh-NqyevcAWw5SiPT-143" source="O1fz6AgV2XTZRpMDdjqL-159" target="8gJjFFY2pVBGSUi6WzXW-232" edge="1">
          <mxGeometry relative="1" as="geometry" />
        </mxCell>
        <mxCell id="O1fz6AgV2XTZRpMDdjqL-161" value="&lt;span style=&quot;font-size: 10px&quot;&gt;查询物流状态&lt;br style=&quot;font-size: 10px&quot;&gt;&lt;/span&gt;" style="rounded=1;fillColor=none;strokeWidth=2;fontFamily=Helvetica;html=1;gradientColor=none;shadow=0;dashed=1;strokeColor=#23445D;fontSize=10;" parent="JWPWh-NqyevcAWw5SiPT-143" vertex="1">
          <mxGeometry x="768.0141843971633" y="407.2637272727273" width="84.3971631205674" height="44.36363636363637" as="geometry" />
        </mxCell>
        <mxCell id="O1fz6AgV2XTZRpMDdjqL-164" style="edgeStyle=orthogonalEdgeStyle;rounded=0;orthogonalLoop=1;jettySize=auto;html=1;exitX=0.5;exitY=1;exitDx=0;exitDy=0;entryX=0.5;entryY=0;entryDx=0;entryDy=0;" parent="JWPWh-NqyevcAWw5SiPT-143" source="O1fz6AgV2XTZRpMDdjqL-160" target="O1fz6AgV2XTZRpMDdjqL-161" edge="1">
          <mxGeometry relative="1" as="geometry" />
        </mxCell>
      </root>
    </mxGraphModel>
  </diagram>
</mxfile>
